<svg width="566" height="580" xmlns="http://www.w3.org/2000/svg" xmlns:svg="http://www.w3.org/2000/svg">
 <g>
  <title>Layer 1</title>
  <g display="none" id="svg_1">
   <g display="inline" id="svg_2">
    <circle cx="337.851" cy="245.093" r="68.103" id="svg_3"/>
    <path d="m283.545,24.007c-145.682,0 -263.781,118.099 -263.781,263.781s118.099,263.781 263.781,263.781s263.781,-118.099 263.781,-263.781s-118.099,-263.781 -263.781,-263.781zm135.007,301.787c-35.898,35.898 -89.692,42.92 -132.482,20.934l-76.709,76.709c-13.651,13.651 -35.783,13.651 -49.434,0c-13.651,-13.651 -13.651,-35.784 0,-49.435l76.777,-76.777c-21.923,-42.853 -15.06,-96.699 20.761,-132.52c44.483,-44.483 116.448,-44.64 160.931,-0.157c44.482,44.485 44.639,116.763 0.156,161.246z" id="svg_4"/>
   </g>
  </g>
  <g display="none" id="svg_5">
   <g display="inline" id="svg_6">
    <path d="m282,211.676c-7.801,0 -13,6.324 -13,14.125l0,66.199l-40.682,0c-7.975,0 -14.318,5.978 -14.318,13.953l0,0.597c0,7.975 6.343,14.449 14.318,14.449l54.641,0c0.053,0 -0.495,-0.012 -0.442,-0.013c0.053,0.001 -0.495,0.004 -0.442,0.004c7.801,0 12.925,-6.324 12.925,-14.125l0,-0.315l0,-0.597l0,-80.152c0,-7.801 -5.199,-14.125 -13,-14.125z" id="svg_7"/>
    <path d="m283.545,24.007c-145.682,0 -263.781,118.099 -263.781,263.781s118.099,263.781 263.781,263.781s263.781,-118.099 263.781,-263.781s-118.099,-263.781 -263.781,-263.781zm-139.125,208.04c-0.89,-1.277 -1.569,-2.707 -2.003,-4.244c-3.279,-7.649 -5.111,-16.066 -5.111,-24.915c0,-34.997 28.371,-63.368 63.368,-63.368c14.59,0 28.023,4.937 38.735,13.224c1.019,0.639 1.951,1.4 2.775,2.268c2.431,2.56 3.932,6.012 3.932,9.82c0,5.696 -3.344,10.6 -8.169,12.891c-0.831,0.395 -1.704,0.709 -2.615,0.938c-27.13,10.06 -50.303,28.252 -66.567,51.62c-0.558,1.116 -1.257,2.145 -2.077,3.069c-2.601,2.933 -6.387,4.792 -10.616,4.792c-4.828,0.001 -9.086,-2.414 -11.652,-6.095zm257.1,194.907c-13.91,13.91 -36.463,13.91 -50.373,0l-5.58,-5.58c-18.184,10.084 -39.105,15.833 -61.371,15.833c-22.105,0 -42.885,-5.664 -60.977,-15.613l-5.36,5.36c-13.91,13.91 -36.463,13.91 -50.373,0c-13.91,-13.91 -13.91,-36.464 0,-50.374l5.424,-5.424c-9.849,-18.023 -15.449,-38.698 -15.449,-60.683c0,-69.995 56.741,-126.735 126.735,-126.735s126.735,56.741 126.735,126.735c0,21.823 -5.518,42.358 -15.232,60.286l5.821,5.821c13.91,13.91 13.91,36.464 0,50.374zm24.752,-197.077c-0.402,1.103 -0.924,2.149 -1.573,3.104c-2.536,3.727 -6.81,6.175 -11.658,6.175c-4.483,0 -8.469,-2.099 -11.05,-5.363c-0.508,-0.642 -0.968,-1.323 -1.36,-2.049c-16.153,-23.843 -39.432,-42.457 -66.784,-52.788c-1.048,-0.252 -2.048,-0.618 -2.991,-1.088c-4.671,-2.325 -7.888,-7.133 -7.888,-12.705c0,-3.488 1.263,-6.677 3.349,-9.148c1.025,-1.215 2.254,-2.245 3.628,-3.061c10.753,-8.412 24.288,-13.434 39,-13.434c34.997,0 63.368,28.371 63.368,63.368c-0.001,9.657 -2.176,18.8 -6.041,26.989z" id="svg_8"/>
   </g>
  </g>
  <g display="none" id="svg_9">
   <path d="m283.545,24.007c-145.682,0 -263.781,118.099 -263.781,263.781s118.099,263.781 263.781,263.781s263.781,-118.099 263.781,-263.781s-118.099,-263.781 -263.781,-263.781zm139.455,375.302c0,7.493 -6.315,13.691 -13.808,13.691l-91.192,0l0,-35.34l0,-20.446l0,-2.871c0.038,-7.37 -6.111,-12.343 -15,-12.343s-39,0 -39,0c-3,-0.005 -2.241,0.161 -2.373,0.161c-7.435,0 -14.625,7.165 -14.625,14.6c0,0.127 -0.002,1.239 -0.002,1.239l0,19.66l0,35.34l-89.837,0l-0.494,0c-7.381,0 -13.669,-6.272 -13.669,-13.685l0,-121.53c0,-2.827 1.062,-5.443 2.568,-7.596c0.888,-1.27 2.164,-2.375 3.431,-3.265l124.012,-124.268l2.154,-2.157c2.255,-1.791 5.106,-2.867 8.209,-2.867c3.004,0 5.772,1.014 7.991,2.702l2.557,2.548l124.987,125.215c-0.054,0.045 -0.047,0.091 -0.101,0.136c2.505,2.415 4.191,5.799 4.191,9.554l0,121.522l0.001,0z" id="svg_10"/>
  </g>
  <g display="none" id="svg_11">
   <g display="inline" id="svg_12">
    <path d="m345.15,271.851c1.183,-1.297 2.547,-2.706 3.842,-4.247c1.421,-1.692 2.659,-3.545 3.417,-5.595c0.433,-1.119 0.713,-2.249 0.713,-3.433c0,-0.07 -0.121,-14.058 -0.121,-14.058l0,-40.854c0,-18.056 -14.646,-31.979 -31.875,-31.979c-2.232,0 -4.372,0.235 -6.66,0.724c-0.07,0.013 -0.098,0.032 -0.168,0.045c-9.206,1.965 -18.404,3.611 -27.845,3.643c-10.388,0.038 -20.532,-1.519 -30.667,-3.688c-2.282,-0.489 -4.222,-0.724 -6.453,-0.724c-17.229,0 -31.331,13.923 -31.331,31.979l0,4.447l0,29.426l0,8.558c0,3.935 -0.94,7.942 -0.673,11.865c0.097,1.434 -0.228,2.931 0.286,4.05c0.791,2.056 2.002,3.895 3.397,5.595c2.021,2.463 4.429,4.628 6.529,6.701c3.923,3.878 8.138,7.475 12.48,10.87c8.742,6.828 18.004,12.937 26.886,19.575c4.857,3.63 11.295,5.67 18.034,5.828c6.739,-0.159 13.176,-2.203 18.033,-5.833c9.734,-7.273 20.006,-13.637 29.409,-21.113c4.536,-3.607 8.857,-7.498 12.767,-11.782zm-85.15,-37.557c0,7.909 -7.091,14.317 -15,14.317c-7.909,0 -15,-6.408 -15,-14.317l0,-14.782c0,-7.909 7.091,-14.317 15,-14.317c7.909,0 15,6.408 15,14.317l0,14.782zm59.5,14.318c-7.909,0 -14.5,-6.408 -14.5,-14.317l0,-14.782c0,-7.909 6.591,-14.317 14.5,-14.317c7.909,0 14.5,6.408 14.5,14.317l0,14.782c0,7.908 -6.591,14.317 -14.5,14.317z" id="svg_13"/>
    <path d="m283.545,24.007c-145.682,0 -263.781,118.099 -263.781,263.781s118.099,263.781 263.781,263.781s263.781,-118.099 263.781,-263.781s-118.099,-263.781 -263.781,-263.781zm108.455,408.03c0,5.283 -4.98,7.963 -10.263,7.963l-103.555,0l-8.55,0l-82.179,0c-5.283,0 -10.453,-2.68 -10.453,-7.963l0,-37.968c0,-11.276 4.59,-23.322 12.77,-35.808c6.836,-10.433 16.918,-21.024 28.32,-30.633c7.486,-6.309 15.463,-11.977 23.502,-16.746c-0.944,-0.673 -1.889,-1.334 -2.831,-2.01c0.055,-0.032 0.106,-0.043 0.16,-0.074c-11.73,-8.489 -19.987,-15.692 -26.141,-21.834c-3.346,-3.388 -5.872,-6.221 -7.879,-9.237c-0.481,-0.51 -0.971,-1.029 -1.433,-1.559c-0.279,-0.321 -0.594,-0.643 -0.863,-0.971c-1.794,-2.187 -3.431,-4.554 -4.449,-7.199c-0.661,-1.441 -1.199,-3.366 -1.325,-5.212c-0.124,-1.817 -0.442,-3.648 -0.429,-5.483c0.024,-3.264 -0.402,-6.543 -0.402,-9.785l0,-18.16l0.549,0.01c0.01,-0.561 0.539,-1.144 0.457,-1.737c-0.82,-5.964 -5.862,-13.494 -7.177,-21.512c-0.104,-0.638 -0.188,-1.279 -0.242,-1.923l0.026,-0.01c-0.401,-4.131 -0.385,-8.308 0.145,-12.457c6.765,-52.927 46.886,-86.808 95.363,-86.808c47.53,0 87.052,32.316 94.942,83.737c0.787,5.139 0.773,10.342 0.025,15.428l0.347,0.109c-0.122,1.478 -0.237,2.94 -0.589,4.384c-1.724,7.058 -5.343,13.637 -6.311,18.973c-0.061,0.336 0.465,0.671 0.465,0.998l0,16.943c0,0 -0.605,6.586 -0.593,11.809c0.008,3.41 -0.606,6.241 -0.606,6.277c0,1.524 -0.42,2.977 -0.977,4.418c-0.975,2.637 -2.594,5.022 -4.423,7.199c-0.278,0.331 -0.559,0.65 -0.841,0.971c-0.657,0.749 -1.313,1.476 -1.963,2.176c-0.905,1.274 -1.887,2.489 -2.972,3.831c-5.301,6.006 -12.847,13.149 -24.136,21.791c-3.328,2.397 -6.672,4.742 -10.056,7.082c8.343,4.984 16.347,10.724 23.081,16.449c0.799,0.68 1.687,1.383 2.49,2.097c19.13,16.999 38.996,43.368 38.996,68.923l0,33.521z" id="svg_14"/>
   </g>
  </g>
  <g display="none" id="svg_15">
   <g display="inline" id="svg_16">
    <path d="m312.499,160.826c-9.98,2.131 -19.499,5.134 -28.499,8.871l0,0.309c0,-0.051 -0.324,-0.099 -0.449,-0.15c-13.49,5.7 -25.679,13.103 -35.916,21.847c6.85,0.617 12.365,6.309 12.365,13.318l0,13.871c0,7.422 -6.578,13.438 -14,13.438s-14,-6.017 -14,-13.438l0,-12.16c-5,7.508 -10,15.638 -14,24.243l0,10.724c0,11.767 40.019,38.51 46.415,42.736c1.735,0.958 3.005,1.504 3.005,1.504c4.505,2.922 10.252,4.531 16.122,4.582c0.101,-0.005 0.459,-0.014 0.459,-0.014l0,0.023c6,-0.006 13.014,-1.989 17.751,-5.526c0,0 47.249,-30.509 47.249,-43.305l0,-51.547c-0.001,-19.131 -17.791,-33.327 -36.502,-29.326zm15.501,58.072c0,7.422 -6.078,13.438 -13.5,13.438c-7.422,0 -13.5,-6.017 -13.5,-13.438l0,-13.871c0,-7.422 6.078,-13.438 13.5,-13.438c7.416,0 13.5,6.017 13.5,13.438l0,13.871z" id="svg_17"/>
    <path d="m283.545,24.007c-145.682,0 -263.781,118.099 -263.781,263.781s118.099,263.781 263.781,263.781s263.781,-118.099 263.781,-263.781s-118.099,-263.781 -263.781,-263.781zm105.455,311.424c-9,-3.568 -18.511,-5.577 -28.63,-5.577c-3.612,0 -7.204,0.26 -10.68,0.748c0.319,0.28 0.666,0.55 0.985,0.834c18.856,16.755 38.325,42.746 38.325,67.934l0,33.04c0,5.207 -4.685,8.59 -9.892,8.59l-102.07,0l-8.427,0l-81.001,0c-5.207,0 -9.609,-3.382 -9.609,-8.59l0,-37.423c0,-11.115 4.2,-22.991 12.263,-35.297c6.493,-9.909 15.656,-19.963 26.374,-29.156c-3.329,-0.447 -6.682,-0.68 -10.135,-0.68c-10.119,0 -19.502,2.01 -28.502,5.577l0,-124.877c0,-58.13 47.049,-105.257 105.179,-105.257c0.091,0 0.147,0.001 0.266,0.003c0.074,0 0.175,-0.003 0.249,-0.003c58.13,0 105.306,47.127 105.306,105.257l0,124.877l-0.001,0z" id="svg_18"/>
   </g>
  </g>
  <g display="none" id="svg_19">
   <g display="inline" id="svg_20">
    <path d="m349.599,245.278l-79.122,40.948c-0.082,0.043 -0.156,0.096 -0.237,0.141c-5.525,2.007 -10.592,5.215 -14.873,9.495c-15.891,15.892 -15.891,41.749 0,57.642c7.698,7.698 17.933,11.938 28.82,11.938s21.122,-4.24 28.82,-11.938c4.63,-4.63 7.901,-10.109 9.832,-15.938l40.798,-78.203c2.104,-4.033 1.351,-8.964 -1.86,-12.185c-3.209,-3.22 -8.138,-3.988 -12.178,-1.9z" id="svg_21"/>
    <path d="m283.545,24.007c-145.682,0 -263.781,118.099 -263.781,263.781s118.099,263.781 263.781,263.781s263.781,-118.099 263.781,-263.781s-118.099,-263.781 -263.781,-263.781zm157.069,312.993l15.415,0c-1.535,20 -6.792,40.567 -15.092,58.692c-0.006,0.018 -0.01,-0.01 -0.017,0.008c-0.088,0.193 -0.829,1.228 -0.961,1.506c-2.081,3.524 -5.906,4.794 -10.295,4.794l-24.507,0l-267.066,0c-4.166,0 -7.495,-1.264 -9.675,-5.366c-0.216,-0.455 -0.974,-1.57 -0.981,-1.59c-8.851,-19.329 -14.24,-40.044 -15.346,-64.044l15.672,0c5.76,0 10.428,-3.741 10.428,-9.5c0,-5.759 -4.669,-9.5 -10.428,-9.5l-15.463,0c2.802,-38 19.118,-75.51 44.351,-103.289l11.527,11.723c2.036,2.036 4.741,3.054 7.41,3.054c2.669,0 5.41,-1.018 7.446,-3.054c4.073,-4.073 4.217,-10.676 0.144,-14.749l-11.042,-11.331c28.262,-24.456 64.866,-39.891 104.866,-41.796l0,15.959c0,5.759 3.74,10.428 9.5,10.428s9.5,-4.669 9.5,-10.428l0,-15.707c39,2.862 76.041,19.222 103.786,44.5l-10.537,10.895c-4.073,4.073 -4.073,10.688 0,14.761c2.036,2.036 4.705,3.079 7.374,3.079c2.669,0 5.338,-0.969 7.374,-3.004l10.688,-10.588c24.41,28.294 39.792,62.547 41.637,104.547l-15.708,0c-5.76,0 -10.428,4.241 -10.428,10c0,5.759 4.668,10 10.428,10z" id="svg_22"/>
   </g>
  </g>
  <g display="none" id="svg_23">
   <g display="inline" id="svg_24">
    <path d="m343.258,200.171c-9.089,0.001 -18.289,2.508 -26.521,7.757c-23.007,14.673 -29.763,45.218 -15.09,68.225c9.423,14.775 25.389,22.847 41.704,22.847c9.089,0 18.29,-2.508 26.521,-7.757c23.007,-14.673 29.762,-45.218 15.09,-68.224c-9.423,-14.777 -25.389,-22.849 -41.704,-22.848zm34.669,57.087c-2.05,9.266 -7.655,17.181 -15.657,22.284c-5.724,3.651 -12.455,5.58 -19.199,5.58c-5.983,0 -11.071,-1.48 -17.071,-4.187l0,-40.485c0,-6.296 5.664,-12.45 11.959,-12.45l34.328,0c0.332,2 0.629,1.465 0.94,1.954c5.103,8.001 6.75,18.037 4.7,27.304z" id="svg_25"/>
    <path d="m283.545,24.007c-145.682,0 -263.781,118.099 -263.781,263.781s118.099,263.781 263.781,263.781s263.781,-118.099 263.781,-263.781s-118.099,-263.781 -263.781,-263.781zm-78.545,383.993l-82,0l0,-77.35c0,-6.296 5.466,-10.65 11.762,-10.65l59.472,0c6.295,0 10.766,4.355 10.766,10.65l0,77.35zm104,0l-84,0l0,-228.013c0,-6.296 4.569,-10.987 10.865,-10.987l54.982,0c-21.431,13 -35.968,35.007 -41.526,59.974c-5.613,25.215 -0.753,50.864 13.108,72.597c11.19,17.547 25.571,30.66 46.571,38.006l0,68.423zm17,0l0,-63.149c6,0.938 11.241,1.433 16.863,1.433c4.727,0 9.725,-0.35 14.392,-1.044l37.24,58.161c1.098,1.722 2.327,3.599 3.647,4.599l-72.142,0zm115.213,-4.086c-4.226,2.695 -8.946,3.982 -13.613,3.982c-8.373,0 -16.569,-4.144 -21.405,-11.727l-42.358,-66.416c-6.831,1.782 -13.783,2.653 -20.694,2.653c-27.275,0 -53.884,-13.574 -69.652,-38.297c-24.541,-38.48 -13.102,-89.658 25.378,-114.199c13.747,-8.767 29.081,-12.948 44.238,-12.948c27.271,0 53.959,13.542 69.733,38.275c19.805,31.054 16.076,70.435 -6.202,97.302l42.32,66.357c7.531,11.809 4.063,27.488 -7.745,35.018z" id="svg_26"/>
   </g>
  </g>
  <g display="none" id="svg_27">
   <g display="inline" id="svg_28">
    <path d="m283.545,24.007c-145.682,0 -263.781,118.099 -263.781,263.781s118.099,263.781 263.781,263.781s263.781,-118.099 263.781,-263.781s-118.099,-263.781 -263.781,-263.781zm179.255,300.845c-1.873,8.407 -10.159,13.275 -18.415,10.817l-22.428,-6.677c-2.855,9.611 -6.676,18.805 -11.367,27.462l20.632,11.166c7.575,4.1 9.987,13.398 5.36,20.662c0,0 -10.312,16.191 -23.125,29.004c-12.869,12.869 -29.193,23.244 -29.193,23.244c-7.269,4.621 -16.571,2.203 -20.67,-5.372l-11.112,-20.532c-8.656,4.702 -17.851,8.533 -27.463,11.398l6.674,22.419c2.458,8.255 -2.411,16.535 -10.82,18.401c0,0 -18.741,4.157 -36.861,4.157c-18.199,0 -37.079,-4.206 -37.079,-4.206c-8.407,-1.873 -13.275,-10.16 -10.817,-18.415l6.637,-22.292c-9.623,-2.852 -18.828,-6.674 -27.495,-11.366l-11.091,20.495c-4.1,7.575 -13.398,9.987 -20.662,5.36c0,0 -16.191,-10.312 -29.004,-23.126c-12.869,-12.869 -23.245,-29.193 -23.245,-29.193c-4.62,-7.269 -2.203,-16.57 5.372,-20.67l20.393,-11.036c-4.704,-8.666 -8.536,-17.873 -11.4,-27.496l-22.278,6.632c-8.255,2.458 -16.535,-2.412 -18.4,-10.82c0,0 -4.157,-18.74 -4.157,-36.861c0,-18.199 4.206,-37.079 4.206,-37.079c1.873,-8.407 10.159,-13.275 18.415,-10.817l22.212,6.613c2.863,-9.624 6.695,-18.831 11.399,-27.497l-20.448,-11.066c-7.575,-4.1 -9.987,-13.398 -5.36,-20.662c0,0 10.312,-16.191 23.125,-29.004c12.869,-12.869 29.193,-23.245 29.193,-23.245c7.269,-4.62 16.571,-2.203 20.67,5.372l11.057,20.431c8.667,-4.693 17.874,-8.515 27.497,-11.367l-6.653,-22.348c-2.458,-8.255 2.412,-16.535 10.82,-18.401c0,0 18.741,-4.157 36.861,-4.157c18.199,0 37.079,4.206 37.079,4.206c8.407,1.873 13.275,10.16 10.817,18.415l-6.653,22.348c9.612,2.866 18.808,6.697 27.464,11.4l11.14,-20.585c4.1,-7.575 13.398,-9.987 20.662,-5.36c0,0 16.191,10.312 29.004,23.126c12.869,12.869 23.244,29.193 23.244,29.193c4.62,7.269 2.203,16.57 -5.372,20.67l-20.571,11.133c4.69,8.657 8.512,17.852 11.366,27.463l22.49,-6.695c8.255,-2.458 16.535,2.412 18.4,10.82c0,0 4.157,18.74 4.157,36.861c-0.001,18.197 -4.207,37.077 -4.207,37.077z" id="svg_29"/>
    <circle cx="283.779" cy="287.886" r="37.594" id="svg_30"/>
   </g>
  </g>
  <g display="none" id="svg_31">
   <g display="inline" id="svg_32">
    <rect x="326.113" y="201.398" transform="matrix(-0.7071,-0.7071,0.7071,-0.7071,472.8639,611.4978) " width="73.929" height="12.835" id="svg_33"/>
    <polygon points="170.708,383.917 187.339,400.547 225.134,390.423 180.832,346.122   " id="svg_34"/>
    <path d="m413.02,192.538c-0.016,-0.268 -0.051,-0.534 -0.072,-0.801c-0.049,-0.602 -0.095,-1.205 -0.173,-1.804c-0.037,-0.284 -0.094,-0.565 -0.138,-0.848c-0.089,-0.58 -0.174,-1.161 -0.291,-1.737c-0.062,-0.305 -0.146,-0.606 -0.215,-0.909c-0.126,-0.55 -0.246,-1.102 -0.397,-1.647c-0.09,-0.325 -0.205,-0.645 -0.304,-0.968c-0.159,-0.518 -0.31,-1.037 -0.492,-1.548c-0.123,-0.346 -0.272,-0.685 -0.406,-1.028c-0.188,-0.48 -0.365,-0.964 -0.574,-1.438c-0.162,-0.367 -0.35,-0.724 -0.525,-1.087c-0.211,-0.44 -0.41,-0.885 -0.64,-1.318c-0.206,-0.388 -0.441,-0.764 -0.661,-1.146c-0.229,-0.396 -0.444,-0.798 -0.688,-1.187c-0.259,-0.413 -0.549,-0.81 -0.826,-1.214c-0.237,-0.345 -0.458,-0.698 -0.708,-1.037c-0.344,-0.466 -0.721,-0.915 -1.089,-1.368c-0.213,-0.262 -0.409,-0.532 -0.63,-0.789c-0.604,-0.703 -1.239,-1.388 -1.905,-2.054l-0.004,0.004c-0.028,-0.03 -0.053,-0.062 -0.083,-0.091c-1.556,-1.556 -4.079,-1.556 -5.634,0c-1.556,1.556 -1.556,4.078 0,5.634c0.042,0.042 0.086,0.078 0.129,0.117c0.172,0.173 0.327,0.356 0.494,0.532c7.992,8.41 9.548,19.621 6.063,30.056c-0.915,1.556 -0.709,3.588 0.626,4.924c1.585,1.585 4.154,1.585 5.739,0c0.537,-0.537 0.888,-1.188 1.06,-1.874c0.08,-0.212 0.141,-0.429 0.218,-0.642c0.211,-0.588 0.421,-1.175 0.601,-1.771c0.072,-0.238 0.128,-0.48 0.195,-0.719c0.17,-0.607 0.339,-1.215 0.478,-1.829c0.054,-0.239 0.091,-0.48 0.141,-0.719c0.127,-0.619 0.253,-1.238 0.348,-1.862c0.036,-0.239 0.056,-0.479 0.088,-0.719c0.083,-0.627 0.166,-1.254 0.217,-1.884c0.02,-0.243 0.022,-0.487 0.037,-0.731c0.039,-0.627 0.077,-1.254 0.084,-1.882c0.003,-0.255 -0.012,-0.509 -0.015,-0.764c-0.007,-0.618 -0.012,-1.236 -0.048,-1.852z" id="svg_35"/>
    <path d="m283.545,24.007c-145.682,0 -263.781,118.099 -263.781,263.781s118.099,263.781 263.781,263.781s263.781,-118.099 263.781,-263.781s-118.099,-263.781 -263.781,-263.781zm129.63,207.768l-3.086,3.086l-19.966,19.966l-143.453,143.453c-1.009,1.736 -2.674,3.036 -4.666,3.569l-54.971,14.725c-0.002,0 -0.003,0.001 -0.004,0.001l-31.304,8.386c-2.657,0.712 -5.493,-0.048 -7.438,-1.993c-1.945,-1.945 -2.705,-4.781 -1.993,-7.438l8.386,-31.304l14.292,-53.352c0.046,-1.907 0.791,-3.801 2.247,-5.257l144.847,-144.847l19.966,-19.966l3.086,-3.086c20.418,-20.418 53.64,-20.418 74.057,0c20.417,20.418 20.417,53.639 0,74.057z" id="svg_36"/>
   </g>
  </g>
  <g display="none" id="svg_37">
   <path d="m283.545,24.007c-145.682,0 -263.781,118.099 -263.781,263.781s118.099,263.781 263.781,263.781s263.781,-118.099 263.781,-263.781s-118.099,-263.781 -263.781,-263.781zm-62.545,379.174c0,11.498 -9.321,20.819 -20.819,20.819l-29.363,0c-11.497,0 -20.818,-9.321 -20.818,-20.819l0,-29.363c0,-11.498 9.321,-20.819 20.819,-20.819l29.363,0c11.498,0 20.819,9.321 20.819,20.819l0,29.363l-0.001,0zm0,-100c0,11.498 -9.321,20.819 -20.819,20.819l-29.363,0c-11.497,0 -20.818,-9.321 -20.818,-20.819l0,-29.363c0,-11.498 9.321,-20.819 20.819,-20.819l29.363,0c11.498,0 20.819,9.321 20.819,20.819l0,29.363l-0.001,0zm0,-102c0,11.498 -9.321,20.819 -20.819,20.819l-29.363,0c-11.497,0 -20.818,-9.321 -20.818,-20.819l0,-29.363c0,-11.498 9.321,-20.819 20.819,-20.819l29.363,0c11.498,0 20.819,9.321 20.819,20.819l0,29.363l-0.001,0zm212,186.032c0,11.48 -9.307,20.787 -20.787,20.787l-138.426,0c-11.48,0 -20.787,-9.307 -20.787,-20.787l0,-0.425c0,-11.481 9.307,-20.787 20.787,-20.787l138.425,0c11.481,0 20.787,9.307 20.787,20.787l0,0.425l0.001,0zm0,-98c0,11.48 -9.307,20.787 -20.787,20.787l-138.426,0c-11.48,0 -20.787,-9.307 -20.787,-20.787l0,-0.425c0,-11.481 9.307,-20.787 20.787,-20.787l138.425,0c11.481,0 20.787,9.307 20.787,20.787l0,0.425l0.001,0zm0,-101c0,11.48 -9.307,20.787 -20.787,20.787l-138.426,0c-11.48,0 -20.787,-9.307 -20.787,-20.787l0,-0.425c0,-11.481 9.307,-20.787 20.787,-20.787l138.425,0c11.481,0 20.787,9.307 20.787,20.787l0,0.425l0.001,0z" id="svg_38"/>
  </g>
  <g display="none" id="svg_39">
   <g display="inline" id="svg_40">
    <rect x="187" y="256" width="192" height="125" id="svg_41"/>
    <path d="m283.545,24.007c-145.682,0 -263.781,118.099 -263.781,263.781s118.099,263.781 263.781,263.781s263.781,-118.099 263.781,-263.781s-118.099,-263.781 -263.781,-263.781zm39.455,133.723l0,-19.607c0,-11.106 9.394,-20.109 20.5,-20.109s20.5,9.003 20.5,20.109l0,19.607l0,20.612c0,11.106 -9.394,20.109 -20.5,20.109s-20.5,-9.003 -20.5,-20.109l0,-20.612zm-119,0l0,-19.607c0,-11.106 8.394,-20.109 19.5,-20.109s19.5,9.003 19.5,20.109l0,19.607l0,20.612c0,11.106 -8.394,20.109 -19.5,20.109s-19.5,-9.003 -19.5,-20.109l0,-20.612zm217,242.478c0,11.019 -9.318,19.792 -20.337,19.792l-233.587,0c-11.018,0 -21.076,-8.773 -21.076,-19.792l0,-222.527c0,-11.019 10.058,-18.681 21.076,-18.681l19.924,0l0,19.342c0,19.959 17.041,36.197 37,36.197s37,-16.238 37,-36.197l0,-19.342l47,0l0,19.342c0,19.959 15.541,36.197 35.5,36.197s35.5,-16.238 35.5,-36.197l0,-19.342l21.663,0c11.019,0 20.337,7.662 20.337,18.681l0,222.527z" id="svg_42"/>
   </g>
  </g>
  <g display="none" id="svg_43">
   <g display="inline" id="svg_44">
    <path d="m348,411.767c7.039,0 12,-5.706 12,-12.745l0,-175.1c0,-7.039 -4.961,-12.745 -12,-12.745s-12,5.706 -12,12.745l0,175.1c0,7.038 4.961,12.745 12,12.745z" id="svg_45"/>
    <path d="m222,411.767c7.039,0 14,-5.706 14,-12.745l0,-175.1c0,-7.039 -6.961,-12.745 -14,-12.745s-14,5.706 -14,12.745l0,175.1c0,7.038 6.961,12.745 14,12.745z" id="svg_46"/>
    <path d="m283.545,24.007c-145.682,0 -263.781,118.099 -263.781,263.781s118.099,263.781 263.781,263.781s263.781,-118.099 263.781,-263.781s-118.099,-263.781 -263.781,-263.781zm109.455,185.128l0,212.78c0,12.095 -10.073,23.085 -22.167,23.085l-173.233,0c-12.094,0 -21.6,-10.99 -21.6,-23.085l0,-212.78l0,-32.135l217,0l0,32.135zm0,-47.135l-217,0l0,-10.841c0,-12.095 9.505,-21.159 21.6,-21.159l55.634,0c0.497,-12 10.163,-21 21.942,-21l18.081,0c11.78,0 21.445,9 21.942,21l55.634,0c12.094,0 22.167,9.064 22.167,21.159l0,10.841z" id="svg_47"/>
    <path d="m284,411.767c7.039,0 13,-5.706 13,-12.745l0,-175.1c0,-7.039 -5.961,-12.745 -13,-12.745s-13,5.706 -13,12.745l0,175.1c0,7.038 5.961,12.745 13,12.745z" id="svg_48"/>
   </g>
  </g>
  <g id="svg_49">
   <g id="svg_50">
    <polygon points="196.661,391.813 223.84,340.524 381.46,229.666 196.625,326.192   " id="svg_51" fill="#03a9f4"/>
    <path d="m283.545,24.007c-145.682,0 -263.781,118.099 -263.781,263.781s118.099,263.781 263.781,263.781s263.781,-118.099 263.781,-263.781s-118.099,-263.781 -263.781,-263.781zm160.376,182.583l-117.664,174.425c-3.558,5.273 -10.504,7.04 -16.15,4.11l-47.144,-24.478l-64.897,56.276c-2.322,2.013 -5.247,3.062 -8.206,3.062c-1.752,0 -3.516,-0.368 -5.173,-1.119c-4.456,-2.023 -7.325,-6.456 -7.345,-11.349l-0.386,-91.883l-70.236,-36.656c-4.681,-2.443 -7.327,-7.562 -6.612,-12.794c0.715,-5.233 4.635,-9.454 9.801,-10.553l321.028,-68.291c4.992,-1.061 10.13,1.012 12.985,5.245c2.854,4.232 2.854,9.773 -0.001,14.005z" id="svg_52" fill="#03a9f4"/>
   </g>
  </g>
 </g>
</svg>
